<svg xmlns="http://www.w3.org/2000/svg" xmlns:xlink="http://www.w3.org/1999/xlink" width="49" height="44" viewBox="0 0 49 44">
  <defs>
    <clipPath id="clip-path">
      <rect id="Rectangle_10" data-name="Rectangle 10" width="49" height="44" transform="translate(212 741)" fill="#fff"/>
    </clipPath>
  </defs>
  <g id="Mask_Group_1" data-name="Mask Group 1" transform="translate(-212 -741)" clip-path="url(#clip-path)">
    <g id="search_1_" data-name="search (1)" transform="translate(214.5 741)">
      <path id="Path_1" data-name="Path 1" d="M9.751,26.59,8.22,32.307l-5.6.118A22.038,22.038,0,0,1,2.46,11.882h0l4.984.914L9.628,17.75a13.13,13.13,0,0,0,.123,8.84Z" fill="#fff"/>
      <path id="Path_2" data-name="Path 2" d="M43.616,17.89a21.992,21.992,0,0,1-7.843,21.266h0l-6.277-.32-.888-5.546a13.112,13.112,0,0,0,5.641-6.7H22.484v-8.7H43.616Z" fill="#fff"/>
      <path id="Path_3" data-name="Path 3" d="M35.772,39.155h0A22.007,22.007,0,0,1,2.622,32.426L9.751,26.59a13.084,13.084,0,0,0,18.855,6.7Z" fill="#fff"/>
      <path id="Path_4" data-name="Path 4" d="M36.043,5.065,28.915,10.9A13.083,13.083,0,0,0,9.628,17.75L2.461,11.882h0A22,22,0,0,1,36.043,5.065Z" fill="#fff"/>
    </g>
  </g>
</svg>
