<svg xmlns="http://www.w3.org/2000/svg" xmlns:xlink="http://www.w3.org/1999/xlink" width="39" height="39" viewBox="0 0 39 39">
  <defs>
    <clipPath id="clip-path">
      <rect id="Rectangle_17" data-name="Rectangle 17" width="39" height="39" transform="translate(218 494)" fill="#1061b0"/>
    </clipPath>
  </defs>
  <g id="Mask_Group_3" data-name="Mask Group 3" transform="translate(-218 -494)" clip-path="url(#clip-path)">
    <g id="chat_1_" data-name="chat (1)" transform="translate(218 494)">
      <g id="Group_17" data-name="Group 17">
        <g id="Group_16" data-name="Group 16">
          <path id="Path_6" data-name="Path 6" d="M10.217,13.809c-.932-.327-1.227-.513-1.227-.87,0-.387.327-.621.9-.621a3.73,3.73,0,0,1,1.646.435l.419-1.63a5.117,5.117,0,0,0-2.143-.433c-1.877,0-3.088,1.071-3.088,2.483-.016.9.59,1.753,2.158,2.282.885.295,1.117.481,1.117.87s-.295.636-1.009.636a4.608,4.608,0,0,1-2.033-.575l-.419,1.692a5.368,5.368,0,0,0,2.453.528c2.174,0,3.291-1.04,3.291-2.453C12.265,15.035,11.659,14.3,10.217,13.809Z" fill="#1061b0"/>
        </g>
      </g>
      <g id="Group_19" data-name="Group 19">
        <g id="Group_18" data-name="Group 18">
          <path id="Path_7" data-name="Path 7" d="M22.618,10.69a2.744,2.744,0,0,0-1.445.373,3.408,3.408,0,0,0-.978.915h-.03a2.152,2.152,0,0,0-2.08-1.288,2.636,2.636,0,0,0-2.3,1.194h-.046l-.108-1.025H13.645c.03.668.062,1.475.062,2.421V18.45h2.3V14.027a1.576,1.576,0,0,1,.093-.59,1.2,1.2,0,0,1,1.1-.854c.746,0,1.088.652,1.088,1.614V18.45h2.3v-4.44a1.972,1.972,0,0,1,.093-.606,1.154,1.154,0,0,1,1.087-.824c.76,0,1.118.636,1.118,1.74V18.45h2.3V13.979C25.18,11.714,24.078,10.69,22.618,10.69Z" fill="#1061b0"/>
        </g>
      </g>
      <g id="Group_21" data-name="Group 21">
        <g id="Group_20" data-name="Group 20">
          <path id="Path_8" data-name="Path 8" d="M30.3,13.809c-.932-.327-1.227-.513-1.227-.87,0-.387.327-.621.9-.621a3.73,3.73,0,0,1,1.646.435l.419-1.63a5.1,5.1,0,0,0-2.143-.434c-1.877,0-3.088,1.071-3.088,2.483-.016.9.59,1.753,2.158,2.282.885.295,1.117.481,1.117.87s-.295.637-1.009.637a4.608,4.608,0,0,1-2.033-.575l-.419,1.692a5.368,5.368,0,0,0,2.453.528c2.174,0,3.291-1.04,3.291-2.452C32.348,15.035,31.742,14.3,30.3,13.809Z" fill="#1061b0"/>
        </g>
      </g>
      <g id="Group_23" data-name="Group 23">
        <g id="Group_22" data-name="Group 22">
          <path id="Path_9" data-name="Path 9" d="M34.964,0H4.036A4.071,4.071,0,0,0,.006,4.1V24.889a4.071,4.071,0,0,0,4.03,4.1H18.361L30.559,39V28.991h4.4a4.071,4.071,0,0,0,4.03-4.1V4.1A4.07,4.07,0,0,0,34.964,0Zm1.592,24.889a1.632,1.632,0,0,1-1.594,1.664H28.122v7.293l-8.89-7.293H4.036a1.63,1.63,0,0,1-1.594-1.663V4.1A1.632,1.632,0,0,1,4.036,2.437H34.964A1.633,1.633,0,0,1,36.556,4.1Z" fill="#1061b0"/>
        </g>
      </g>
    </g>
  </g>
</svg>
