<svg xmlns="http://www.w3.org/2000/svg" width="39.342" height="34.753" viewBox="0 0 39.342 34.753">
  <g id="check-mark" transform="translate(-0.001 -20.566)">
    <path id="Path_5" data-name="Path 5" d="M37.625,20.832c-1.775-.956-3.755.888-4.916,1.98-2.663,2.595-4.916,5.6-7.443,8.33-2.8,3-5.394,6.009-8.262,8.945A24.635,24.635,0,0,0,12.5,45.55c-2.458-2.39-4.575-4.985-7.306-7.1C3.211,36.947-.067,35.854,0,39.473c.137,4.712,4.3,9.764,7.374,12.974,1.3,1.366,3,2.8,4.985,2.868,2.39.137,4.848-2.731,6.282-4.3,2.527-2.731,4.575-5.8,6.9-8.6,3-3.687,6.077-7.306,9.013-11.062C36.4,29.026,42.2,23.29,37.625,20.832ZM3.006,39.2a.517.517,0,0,0-.273.068A3.323,3.323,0,0,1,1.982,39h0Q2.289,38.79,3.006,39.2Z" transform="translate(0)" fill="#fff"/>
  </g>
</svg>
